# xmcd
#
# Track frame offsets:
#	150
#	20777
#	43493
#	60267
#	76000
#	97696
#	117020
#	145662
#	167371
#	192273
#	215036
#	229184
#	243987
#
# Disc length: 3480 seconds
#
# Revision: 1
# Processed by: cddbd v1.5.1PL0 Copyright (c) Steve Scherf et al.
# Submitted via: EasyCDDAExtractor 8.2.1.1
#
DISCID=a20d960d
DTITLE=Little Charlie And The Nightcats - Nine Lives
DYEAR=2005
DGENRE=Blues
TTITLE0=Keep Your Big Mouth Shut
TTITLE1=Handle With Care
TTITLE2=So Good
TTITLE3=Got To Have A Job
TTITLE4=Circling The Drain
TTITLE5=Don't Cha Do Nothin'
TTITLE6=Cool Johnny Twist
TTITLE7=Tag (You're It)
TTITLE8=Quittin' Time
TTITLE9=Dee Pockets
TTITLE10=Wall To Wall
TTITLE11=Sugar Daddy Sweet
TTITLE12=Slap Happy
EXTD=
EXTT0=
EXTT1=
EXTT2=
EXTT3=
EXTT4=
EXTT5=
EXTT6=
EXTT7=
EXTT8=
EXTT9=
EXTT10=
EXTT11=
EXTT12=
PLAYORDER=
